<svg xmlns="http://www.w3.org/2000/svg" width="477.681" height="33.974" fill="none"><rect width="477.681" height="13.616" fill="#816655" rx="6.808" transform="matrix(1 0 0 -1 0 23.72)"/><path fill="#E8E3E1" d="M437.948 16.987c0 9.382-7.605 16.987-16.987 16.987-9.382 0-16.987-7.605-16.987-16.987C403.974 7.605 411.579 0 420.961 0c9.382 0 16.987 7.605 16.987 16.987Z"/><path fill="#816655" fill-rule="evenodd" d="M420.961 33.974c9.382 0 16.987-7.605 16.987-16.987C437.948 7.605 430.343 0 420.961 0c-9.382 0-16.987 7.605-16.987 16.987 0 9.382 7.605 16.987 16.987 16.987Zm2.61-5.953c-.846.2-1.716.299-2.61.299a11.193 11.193 0 0 1-4.409-.888A11.262 11.262 0 0 1 412.948 25a11.34 11.34 0 0 1-1.505-1.855 11.343 11.343 0 0 1-1.516-3.549 11.37 11.37 0 0 1-.299-2.61c0-.894.1-1.764.299-2.61a11.348 11.348 0 0 1 1.516-3.55c.431-.663.932-1.281 1.505-1.853a11.264 11.264 0 0 1 3.604-2.431 11.198 11.198 0 0 1 4.409-.889 11.242 11.242 0 0 1 4.41.888 11.253 11.253 0 0 1 3.604 2.432c.572.572 1.073 1.19 1.504 1.854a11.436 11.436 0 0 1 1.516 3.549c.199.846.299 1.716.299 2.61 0 .894-.1 1.764-.299 2.61a11.34 11.34 0 0 1-1.516 3.55A11.384 11.384 0 0 1 428.975 25a11.436 11.436 0 0 1-1.854 1.504 11.308 11.308 0 0 1-3.55 1.516Z"/></svg>